<?xml version="1.0" encoding="UTF-8"?>
<svg version="1.1" xmlns="http://www.w3.org/2000/svg" width="20" height="20" fill="white">
<path d="M0 0 C1.32 0 2.64 0 4 0 C4 3.63 4 7.26 4 11 C6.64 12.32 9.28 13.64 12 15 C12 14.01 12 13.02 12 12 C9.525 11.505 9.525 11.505 7 11 C8.4275589 7.69831248 10.15516057 5.60095359 12.8125 3.1875 C13.47894531 2.56230469 14.14539062 1.93710937 14.83203125 1.29296875 C17 0 17 0 19.4921875 0.09375 C22.31498558 1.11382657 24.06270211 2.33386419 26.3125 4.3125 C27.00988281 4.90675781 27.70726562 5.50101562 28.42578125 6.11328125 C30 8 30 8 30 12 C28.68 12 27.36 12 26 12 C26.31520162 15.67735224 26.82309044 16.83172017 29.5625 19.4375 C32 22 32 22 32.3125 25.3125 C32.209375 26.199375 32.10625 27.08625 32 28 C31.01 27.67 30.02 27.34 29 27 C28.505 26.01 28.505 26.01 28 25 C27.34 24.67 26.68 24.34 26 24 C24 23 24 23 23 21 C22.505 22.485 22.505 22.485 22 24 C21.01 24.495 21.01 24.495 20 25 C20 28.3 20 31.6 20 35 C21.27875 35.061875 22.5575 35.12375 23.875 35.1875 C24.59429687 35.22230469 25.31359375 35.25710937 26.0546875 35.29296875 C26.69664063 35.19628906 27.33859375 35.09960938 28 35 C28.66 34.01 29.32 33.02 30 32 C30.66 32 31.32 32 32 32 C32.1875 34.875 32.1875 34.875 32 38 C28.36804504 40.42130331 26.61650652 40.21022785 22.3125 40.125 C21.13300781 40.10695312 19.95351563 40.08890625 18.73828125 40.0703125 C17.38283203 40.03550781 17.38283203 40.03550781 16 40 C15.77570312 40.60328125 15.55140625 41.2065625 15.3203125 41.828125 C12.85967323 45.8758038 8.17844755 47.07148575 4 49 C4 52.63 4 56.26 4 60 C2.68 60 1.36 60 0 60 C0 56.37 0 52.74 0 49 C-1.60875 48.2575 -3.2175 47.515 -4.875 46.75 C-8.62691725 45.01834588 -10.53403275 43.9429464 -12 40 C-14.64 40.33 -17.28 40.66 -20 41 C-20 44.96 -20 48.92 -20 53 C-18.68 53.66 -17.36 54.32 -16 55 C-14.35429841 53.94369738 -14.35429841 53.94369738 -13 52 C-12.7496423 48.37464024 -12.7496423 48.37464024 -13 45 C-12.01 45 -11.02 45 -10 45 C-10 45.99 -10 46.98 -10 48 C-8.35 48.33 -6.7 48.66 -5 49 C-6.4275589 52.30168752 -8.15516057 54.39904641 -10.8125 56.8125 C-11.47894531 57.43769531 -12.14539063 58.06289063 -12.83203125 58.70703125 C-15 60 -15 60 -17.4921875 59.90625 C-20.31498558 58.88617343 -22.06270211 57.66613581 -24.3125 55.6875 C-25.00988281 55.09324219 -25.70726562 54.49898437 -26.42578125 53.88671875 C-28 52 -28 52 -28 48 C-26.68 48 -25.36 48 -24 48 C-23.66619186 44.62563814 -23.66619186 44.62563814 -24 41 C-25.31337396 39.9739266 -26.64664105 38.97272675 -28 38 C-28.25 34.8125 -28.25 34.8125 -28 32 C-25 33 -25 33 -24 35 C-21.36 35 -18.72 35 -16 35 C-15.91909029 33.37581255 -15.86085005 31.75048255 -15.8125 30.125 C-15.77769531 29.22007813 -15.74289062 28.31515625 -15.70703125 27.3828125 C-15.85205078 26.20332031 -15.85205078 26.20332031 -16 25 C-16.99 24.34 -17.98 23.68 -19 23 C-19 22.01 -19 21.02 -19 20 C-19.268125 20.639375 -19.53625 21.27875 -19.8125 21.9375 C-21 24 -21 24 -24 25 C-24.66 25.99 -25.32 26.98 -26 28 C-26.66 28 -27.32 28 -28 28 C-28.3125 25.3125 -28.3125 25.3125 -28 22 C-25.34486254 18.84253924 -22.3272464 15.27189611 -18.02734375 14.76953125 C-12.22222222 14.88888889 -12.22222222 14.88888889 -10 16 C-7.52182163 15.00503992 -7.52182163 15.00503992 -4.875 13.5625 C-3.96492188 13.08941406 -3.05484375 12.61632813 -2.1171875 12.12890625 C-1.41851563 11.75636719 -0.71984375 11.38382813 0 11 C0 7.37 0 3.74 0 0 Z M16.3125 5 C14.15331014 8.29019407 15.31878915 11.22237618 16 15 C17.98 15 19.96 15 22 15 C22.66 12.36 23.32 9.72 24 7 C20.46345809 3.86700712 20.46345809 3.86700712 16.3125 5 Z M12 15 C13.485 15.99 13.485 15.99 15 17 C15.33 16.34 15.66 15.68 16 15 C14.68 15 13.36 15 12 15 Z M-5 21 C-5 26.94 -5 32.88 -5 39 C2.05436782 39.94229282 2.05436782 39.94229282 9 39 C9 33.06 9 27.12 9 21 C1.94563218 20.05770718 1.94563218 20.05770718 -5 21 Z " fill="white" transform="translate(28,0)"/>
<path d="M0 0 C3 1 3 1 5 4 C5.30078125 6.33984375 5.30078125 6.33984375 5.3125 8.9375 C5.33763672 10.21947266 5.33763672 10.21947266 5.36328125 11.52734375 C4.93504169 14.4421356 3.92290461 15.81326679 2 18 C-1 17 -1 17 -3 14 C-3.30078125 11.66015625 -3.30078125 11.66015625 -3.3125 9.0625 C-3.32925781 8.20785156 -3.34601562 7.35320313 -3.36328125 6.47265625 C-2.93504169 3.5578644 -1.92290461 2.18673321 0 0 Z " fill="white" transform="translate(29,21)"/>
</svg>
